<?xml version="1.0" standalone="no"?>
<!DOCTYPE svg PUBLIC "-//W3C//DTD SVG 20010904//EN"
 "http://www.w3.org/TR/2001/REC-SVG-20010904/DTD/svg10.dtd">
<svg version="1.0" xmlns="http://www.w3.org/2000/svg"
 width="1500.000000pt" height="1500.000000pt" viewBox="0 0 1500.000000 1500.000000"
 preserveAspectRatio="xMidYMid meet">
<metadata>
Created by potrace 1.16, written by Peter Selinger 2001-2019
</metadata>
<g transform="translate(0.000000,1500.000000) scale(0.100000,-0.100000)"
fill="#000000" stroke="none">
<path d="M0 7500 l0 -7500 7500 0 7500 0 0 7500 0 7500 -7500 0 -7500 0 0
-7500z m9901 6113 c-188 -355 -326 -631 -320 -637 3 -3 92 100 198 229 347
422 464 507 796 574 316 64 575 41 945 -83 631 -212 851 -478 853 -1036 1
-181 -21 -315 -79 -482 -66 -189 -114 -268 -297 -482 -296 -347 -527 -537
-867 -714 -252 -132 -478 -210 -786 -272 -297 -60 -316 -62 -1021 -69 -358 -3
-654 -9 -658 -13 -24 -23 240 -103 495 -150 114 -21 153 -22 445 -22 453 1
897 45 1316 129 95 19 174 33 177 30 19 -19 -262 -236 -778 -601 -85 -60 -224
-163 -310 -229 -667 -514 -732 -553 -1314 -786 -137 -55 -260 -106 -275 -114
l-26 -13 26 -10 c67 -26 318 -74 484 -92 124 -13 205 -29 205 -39 0 -45 -509
-305 -914 -466 -282 -112 -662 -220 -946 -270 -228 -39 -405 -55 -675 -61
-137 -2 -274 -7 -302 -10 -81 -8 -72 -29 55 -124 128 -96 322 -195 592 -302
l185 -73 -515 -3 c-283 -1 -518 -6 -522 -10 -4 -4 32 -43 81 -85 143 -125 143
-124 -4 -72 -70 25 -185 61 -254 81 -267 76 -291 84 -291 103 0 40 336 674
488 921 584 946 1503 2002 2391 2749 400 336 878 664 1318 904 624 341 1227
576 2018 787 127 34 241 65 255 70 55 18 -538 -13 -667 -36 -46 -8 -152 -32
-235 -54 -1645 -426 -3347 -1681 -4684 -3455 -610 -809 -1158 -1798 -1511
-2725 -93 -245 -108 -286 -197 -557 -62 -186 -92 -264 -104 -267 -30 -9 -185
-35 -249 -41 -52 -6 -64 -4 -69 9 -27 70 293 931 590 1586 32 69 58 132 58
140 2 34 -228 395 -371 583 -44 59 -81 112 -81 117 0 14 44 12 225 -14 106
-14 161 -18 163 -11 1 5 -22 98 -52 205 -70 253 -69 250 -54 250 6 0 56 -21
110 -46 55 -25 101 -44 104 -41 3 3 0 41 -6 84 -24 155 -6 523 35 701 63 274
231 615 442 899 97 131 297 343 301 321 2 -8 -20 -116 -48 -239 -157 -693
-188 -906 -196 -1344 -2 -148 -2 -265 0 -260 3 6 21 125 41 265 108 770 230
1223 455 1695 162 342 436 756 661 1002 215 234 524 497 782 664 152 99 500
269 549 269 23 0 33 36 -94 -350 -103 -315 -159 -527 -202 -760 -33 -183 -41
-248 -28 -235 6 6 121 255 257 555 245 539 374 809 463 965 138 243 283 411
481 558 240 179 386 263 726 415 302 135 360 159 363 150 2 -4 -55 -119 -127
-255z m-2851 -8093 c153 -51 271 -168 323 -320 21 -64 22 -76 25 -680 3 -682
1 -708 -56 -823 -64 -130 -181 -223 -328 -261 -79 -21 -241 -21 -319 -1 -192
50 -328 194 -370 390 -21 101 -22 1197 -1 1308 40 207 182 354 391 403 86 20
252 12 335 -16z m1371 0 c213 -71 338 -255 339 -496 0 -98 7 -94 -161 -94
l-116 0 -6 89 c-8 128 -43 199 -120 248 -48 30 -148 42 -213 24 -56 -15 -117
-70 -145 -133 l-24 -53 -3 -580 c-4 -685 -1 -713 74 -789 46 -45 101 -68 168
-70 84 -1 146 24 196 81 46 52 59 92 68 207 l7 81 125 -2 c69 -2 131 -5 138
-8 17 -6 16 -144 -3 -223 -8 -34 -27 -86 -41 -114 -36 -71 -133 -169 -204
-207 -109 -58 -279 -77 -423 -46 -181 38 -329 183 -372 366 -22 95 -22 1273 0
1368 46 191 199 335 398 371 83 15 244 4 318 -20z m-7134 2 c6 -4 65 -315 133
-712 67 -388 123 -707 126 -709 8 -8 15 37 119 719 65 429 110 697 118 702 21
13 223 10 234 -4 6 -7 61 -321 122 -698 112 -682 119 -725 127 -718 2 3 53
319 114 703 61 384 115 704 121 712 13 15 244 19 268 4 11 -7 -19 -185 -173
-1022 -103 -558 -191 -1024 -196 -1036 -9 -22 -15 -23 -129 -23 -88 0 -121 4
-130 14 -6 7 -61 321 -121 697 -61 376 -113 695 -116 709 l-7 25 -7 -30 c-5
-16 -54 -336 -111 -710 -56 -374 -106 -686 -112 -692 -7 -9 -45 -13 -127 -13
-82 0 -121 4 -128 13 -10 13 -402 1999 -402 2040 0 13 3 27 7 30 9 9 255 9
270 -1z m2397 -2 c200 -29 364 -196 411 -417 19 -89 19 -261 0 -342 -33 -137
-112 -254 -220 -326 -30 -20 -55 -39 -55 -43 0 -4 68 -212 152 -462 89 -268
149 -463 145 -473 -6 -15 -24 -17 -136 -17 -125 0 -131 1 -144 23 -8 12 -74
219 -148 460 l-134 437 -115 -2 -115 -3 -5 -455 -5 -455 -135 0 -135 0 -3
1034 c-2 821 0 1036 10 1043 19 11 550 9 632 -2z m981 -1035 l0 -1040 -135 0
-135 0 -3 1034 c-2 821 0 1036 10 1043 7 4 69 7 138 6 l125 -3 0 -1040z m1403
1033 c13 -13 17 -192 6 -222 -5 -14 -34 -16 -215 -16 l-209 0 0 -903 c0 -711
-3 -907 -13 -920 -11 -15 -29 -17 -142 -15 l-130 3 -3 917 -2 918 -203 2 -202
3 -3 114 c-2 85 1 117 10 123 22 13 1092 10 1106 -4z m3655 1 c138 -22 274
-115 341 -234 77 -139 106 -342 72 -505 -32 -150 -131 -297 -239 -355 -20 -11
-37 -26 -37 -35 0 -8 68 -219 151 -468 83 -249 148 -459 145 -467 -8 -22 -258
-22 -276 0 -7 9 -75 215 -150 458 l-136 442 -117 3 -117 3 -2 -458 -3 -458
-135 0 -135 0 -3 1030 c-1 567 0 1036 3 1043 6 16 534 17 638 1z m1315 2 c17
-10 467 -2043 458 -2066 -8 -21 -257 -22 -275 -1 -6 8 -26 92 -45 187 l-32
174 -257 3 -256 2 -10 -52 c-6 -29 -20 -105 -31 -168 -31 -174 -16 -160 -169
-160 -84 0 -132 4 -137 11 -9 15 438 2049 454 2066 15 15 277 19 300 4z m1671
-5 c8 -9 11 -51 9 -122 l-3 -109 -352 -3 -353 -2 0 -335 0 -335 223 -2 222 -3
3 -114 c2 -85 -1 -117 -10 -123 -7 -4 -109 -8 -225 -8 l-213 0 -2 -457 -3
-458 -135 0 -135 0 -3 1030 c-1 567 0 1036 3 1043 7 19 958 18 974 -2z m1259
6 c9 -6 12 -38 10 -123 l-3 -114 -212 -3 -213 -2 -2 -918 -3 -917 -134 -3
c-101 -2 -136 1 -143 10 -4 7 -8 421 -8 921 l0 907 -199 0 c-172 0 -200 2
-205 16 -11 30 -7 209 6 222 14 14 1084 17 1106 4z m-6363 -2947 c168 -44 271
-187 282 -390 6 -108 -7 -189 -45 -270 -73 -154 -241 -236 -424 -206 -212 35
-328 190 -328 436 0 142 34 245 107 326 92 102 255 143 408 104z m3597 -14
c112 -43 201 -155 228 -288 17 -82 8 -245 -17 -315 -42 -115 -111 -186 -222
-229 -79 -31 -223 -31 -301 -1 -109 43 -174 110 -222 231 -30 77 -33 277 -4
364 40 121 140 220 256 252 75 21 207 14 282 -14z m1245 -5 c32 -15 71 -39 86
-54 37 -34 75 -110 86 -167 l8 -45 -53 0 c-50 0 -54 2 -60 28 -28 115 -118
185 -239 184 -81 0 -136 -24 -189 -83 -60 -67 -88 -152 -89 -268 0 -172 66
-300 180 -348 47 -19 150 -16 199 6 52 24 108 90 124 146 l13 45 54 0 55 0 -7
-32 c-29 -139 -128 -231 -275 -258 -165 -30 -329 42 -403 177 -75 139 -78 354
-5 496 26 52 93 123 143 152 104 62 263 70 372 21z m-10617 -338 c45 -194 86
-362 90 -373 6 -17 9 -13 18 20 69 258 182 686 182 690 0 3 33 5 73 5 l74 0
93 -365 c52 -200 96 -362 99 -359 4 3 47 168 97 367 l90 362 57 3 c31 2 57 2
57 0 -1 -2 -54 -192 -118 -423 l-118 -420 -70 -3 -71 -3 -94 360 c-52 198 -97
357 -100 353 -4 -4 -46 -151 -93 -327 -48 -176 -92 -335 -97 -352 l-11 -33
-68 0 -69 0 -15 53 c-27 94 -206 779 -206 788 0 5 26 9 58 9 l58 0 84 -352z
m1620 312 l0 -40 -225 0 -225 0 0 -150 0 -150 205 0 205 0 0 -45 0 -45 -205 0
-205 0 0 -145 0 -145 230 0 230 0 0 -45 0 -45 -285 0 -285 0 0 425 0 425 280
0 280 0 0 -40z m818 -17 c33 -92 272 -785 272 -790 0 -2 -26 -3 -57 -1 l-56 3
-50 148 -49 147 -158 0 -158 0 -49 -147 -50 -148 -58 -3 c-45 -2 -56 0 -52 10
2 8 71 199 153 426 l148 412 71 0 72 0 21 -57z m892 25 c58 -29 93 -70 110
-129 30 -102 -15 -211 -105 -253 l-35 -17 31 -27 c45 -37 66 -92 80 -202 6
-52 19 -116 29 -142 l18 -48 -58 0 -58 0 -15 63 c-8 34 -19 89 -22 122 -9 78
-36 139 -71 162 -23 14 -53 19 -156 22 l-128 3 0 -186 0 -186 -50 0 -50 0 0
426 0 425 213 -3 c208 -3 213 -4 267 -30z m840 -8 l0 -40 -225 0 -225 0 0
-150 0 -150 205 0 205 0 0 -45 0 -45 -205 0 -205 0 0 -145 0 -145 230 0 230 0
0 -45 0 -45 -285 0 -285 0 0 425 0 425 280 0 280 0 0 -40z m575 -165 c65 -113
119 -205 120 -203 1 2 53 94 114 206 l113 202 60 0 c60 0 60 0 46 -22 -8 -13
-76 -129 -151 -259 l-137 -235 0 -167 0 -167 -50 0 -50 0 0 163 0 163 -150
258 c-82 142 -150 260 -150 262 0 2 26 4 59 4 l58 0 118 -205z m1585 -97 c0
-183 4 -318 11 -341 14 -52 69 -111 117 -125 138 -42 264 18 291 138 6 25 11
173 11 338 l0 292 50 0 50 0 0 -320 c0 -363 -5 -392 -77 -462 -49 -47 -85 -64
-163 -78 -135 -24 -282 20 -338 103 -54 79 -55 89 -60 435 l-4 322 56 0 56 0
0 -302z m1188 287 c100 -30 154 -103 155 -209 1 -91 -34 -152 -111 -190 l-33
-17 30 -24 c43 -37 62 -86 81 -215 10 -64 25 -130 34 -148 l17 -32 -60 0 -60
0 -11 38 c-6 20 -18 84 -27 140 -27 170 -52 190 -240 191 l-113 1 0 -185 0
-185 -55 0 -55 0 0 425 0 425 198 0 c150 0 211 -4 250 -15z m737 -341 c64
-195 121 -368 127 -382 9 -25 14 -17 54 103 24 72 83 244 130 383 l86 252 54
0 c30 0 54 -3 54 -7 0 -6 -227 -642 -282 -790 l-19 -53 -72 0 -72 0 -146 425
-146 425 58 0 57 0 117 -356z m1635 -69 l0 -425 -55 0 -55 0 0 425 0 425 55 0
55 0 0 -425z m1640 385 l0 -40 -225 0 -225 0 0 -150 0 -150 205 0 205 0 0 -45
0 -45 -205 0 -205 0 0 -145 0 -145 230 0 230 0 0 -45 0 -45 -285 0 -285 0 0
425 0 425 280 0 280 0 0 -40z"/>
<path d="M6760 5287 c-19 -6 -56 -32 -82 -58 -81 -81 -79 -64 -76 -770 l3
-614 29 -53 c52 -93 159 -142 266 -122 123 23 189 97 210 238 16 101 8 1164
-9 1214 -34 105 -136 179 -245 177 -34 -1 -77 -6 -96 -12z"/>
<path d="M3325 5267 c-3 -6 -4 -161 -3 -342 l3 -330 155 0 c152 0 156 1 203
28 96 56 142 158 141 312 -1 123 -23 192 -86 260 -67 73 -105 85 -275 85 -98
0 -135 -3 -138 -13z"/>
<path d="M9367 5273 c-4 -3 -7 -159 -7 -345 l0 -338 138 0 c164 0 200 9 259
63 84 78 118 193 102 348 -14 128 -92 239 -187 267 -41 13 -294 17 -305 5z"/>
<path d="M10876 5100 c-8 -34 -196 -1033 -196 -1042 0 -5 92 -8 205 -8 157 0
205 3 205 13 0 22 -191 1022 -199 1042 -8 19 -9 19 -15 -5z"/>
<path d="M7431 2499 c-124 -25 -201 -121 -221 -281 -18 -147 17 -281 93 -356
76 -75 203 -95 302 -48 63 30 97 65 132 141 26 56 28 69 28 185 0 151 -16 207
-81 279 -64 71 -155 100 -253 80z"/>
<path d="M10983 2500 c-88 -18 -159 -79 -196 -170 -19 -47 -22 -74 -22 -185 0
-123 2 -134 29 -193 51 -110 131 -162 248 -162 76 0 135 23 185 72 53 52 81
117 91 210 20 200 -34 346 -150 401 -61 29 -126 38 -185 27z"/>
<path d="M4147 2410 c-15 -41 -44 -126 -66 -187 l-39 -113 128 0 129 0 -58
173 c-32 94 -60 179 -63 187 -2 8 -16 -19 -31 -60z"/>
<path d="M4785 2478 c-3 -7 -4 -79 -3 -158 l3 -145 135 0 c153 1 188 12 223
74 27 44 26 134 -1 170 -39 53 -72 63 -217 69 -111 4 -136 2 -140 -10z"/>
<path d="M9010 2330 l0 -163 138 5 c158 5 194 18 224 78 24 47 23 126 -2 167
-32 54 -68 65 -222 71 l-138 5 0 -163z"/>
</g>
</svg>
